<svg id="Layer_1" data-name="Layer 1" xmlns="http://www.w3.org/2000/svg" viewBox="0 0 40.27 45.8"><defs><style>.cls-1{fill:#f0ca30;}</style></defs><title>Untitled-5</title><path d="M45.66,30.52l-4.33-.62L40.47,18.28l3-1.11L42,2,17.14,2l-8.77,9.2v0l0.08,1.28v0l0.05,0.83,0.13,1.93,0,0.42v0.18L8.85,18.5l0.06,1L9,21.11l0,0.67-1.64.81-2,11.54,4.54,0.66L10,35.59,10,36.47s0.07,1,.1,1.49l0.1,1.45,0.16,2.37,0.06,0.94v0l9.92,5.06,22.82-2.7Z" transform="translate(-5.39 -2)"/><polygon class="cls-1" points="25.72 33.19 25.25 27.16 25.25 27.16 32.76 26.65 32.76 26.65 32.27 20.25 32.27 20.25 24.76 20.64 24.76 20.64 24.03 11.13 24.03 11.13 33.86 10.85 33.86 10.85 33.34 4.58 33.34 4.58 16.99 4.8 16.99 4.8 18.17 20.97 18.17 20.97 15.02 21.13 15.02 21.13 13.97 27.92 13.97 27.92 18.66 27.6 18.66 27.6 19.6 40.45 19.6 40.45 34.85 38.94 34.85 38.94 36 32.34 36 32.34 25.72 33.19"/></svg>